<?xml version="1.0" standalone="no"?>
<!DOCTYPE svg PUBLIC "-//W3C//DTD SVG 20010904//EN"
 "http://www.w3.org/TR/2001/REC-SVG-20010904/DTD/svg10.dtd">
<svg version="1.0" xmlns="http://www.w3.org/2000/svg"
 width="512.000000pt" height="512.000000pt" viewBox="0 0 512.000000 512.000000"
 preserveAspectRatio="xMidYMid meet">

<g transform="translate(0.000000,512.000000) scale(0.100000,-0.100000)"
fill="#000000" stroke="none">
<path d="M0 2560 l0 -2560 1208 1 c722 1 1171 5 1117 10 -498 46 -991 248
-1380 564 -121 98 -334 318 -423 437 -137 183 -272 418 -254 441 5 7 202 264
439 572 l430 560 37 375 c55 557 75 656 171 855 68 141 140 241 260 360 201
202 414 318 688 377 144 31 388 31 534 -1 181 -38 331 -101 486 -203 80 -53
205 -173 950 -917 l857 -856 0 1273 0 1272 -2560 0 -2560 0 0 -2560z"/>
<path d="M1625 3523 c10 -53 28 -84 74 -126 128 -116 332 -43 367 132 l7 31
-228 0 -227 0 7 -37z"/>
<path d="M3050 3538 c1 -34 33 -99 66 -132 126 -126 352 -56 381 117 l6 37
-227 0 -226 0 0 -22z"/>
<path d="M2560 3090 l0 -365 114 245 c76 164 111 250 105 260 -4 8 -55 62
-113 120 l-106 105 0 -365z"/>
<path d="M5102 2278 c-27 -278 -111 -568 -242 -833 -127 -260 -267 -460 -460
-659 -218 -225 -430 -381 -701 -515 -300 -150 -611 -235 -954 -264 -22 -2 503
-4 1168 -5 l1207 -2 0 1200 c0 660 -1 1200 -3 1200 -1 0 -8 -55 -15 -122z"/>
</g>
</svg>
