<?xml version="1.0" standalone="no"?>
<!DOCTYPE svg PUBLIC "-//W3C//DTD SVG 20010904//EN"
 "http://www.w3.org/TR/2001/REC-SVG-20010904/DTD/svg10.dtd">
<svg version="1.0" xmlns="http://www.w3.org/2000/svg"
 width="512.000000pt" height="512.000000pt" viewBox="0 0 512.000000 512.000000"
 preserveAspectRatio="xMidYMid meet">

<g transform="translate(0.000000,512.000000) scale(0.100000,-0.100000)"
fill="#000000" stroke="none">
<path d="M3659 4010 c108 -151 187 -334 224 -520 9 -41 34 -259 57 -485 23
-225 43 -414 44 -420 6 -16 866 -1130 875 -1133 5 -2 29 46 55 106 120 284
185 572 201 892 l7 125 -762 760 c-643 641 -752 747 -701 675z"/>
<path d="M1625 3523 c10 -53 28 -84 74 -126 128 -116 332 -43 367 132 l7 31
-228 0 -227 0 7 -37z"/>
<path d="M3050 3538 c1 -34 33 -99 66 -132 126 -126 352 -56 381 117 l6 37
-227 0 -226 0 0 -22z"/>
<path d="M2560 3090 l0 -365 114 245 c76 164 111 250 105 260 -4 8 -55 62
-113 120 l-106 105 0 -365z"/>
</g>
</svg>
