<?xml version="1.0" standalone="no"?>
<!DOCTYPE svg PUBLIC "-//W3C//DTD SVG 20010904//EN"
 "http://www.w3.org/TR/2001/REC-SVG-20010904/DTD/svg10.dtd">
<svg version="1.0" xmlns="http://www.w3.org/2000/svg"
 width="512.000000pt" height="512.000000pt" viewBox="0 0 512.000000 512.000000"
 preserveAspectRatio="xMidYMid meet">

<g transform="translate(0.000000,512.000000) scale(0.100000,-0.100000)"
fill="#000000" stroke="none">
<path d="M0 2560 l0 -2560 1208 1 c722 1 1171 5 1117 10 -498 46 -991 248
-1380 564 -121 98 -334 318 -423 437 -89 119 -171 247 -223 350 l-39 78 436
567 c240 311 438 571 440 577 2 6 24 207 49 447 55 534 71 607 183 823 155
301 438 542 765 651 145 49 267 68 427 67 160 0 285 -20 427 -67 326 -109 610
-350 765 -651 111 -215 128 -292 183 -823 25 -240 47 -442 50 -448 2 -7 200
-267 440 -578 l436 -566 -51 -95 c-199 -374 -528 -724 -895 -955 -338 -212
-750 -347 -1170 -382 -22 -2 503 -4 1168 -5 l1207 -2 0 2560 0 2560 -2560 0
-2560 0 0 -2560z"/>
<path d="M1625 3523 c10 -53 28 -84 74 -126 128 -116 332 -43 367 132 l7 31
-228 0 -227 0 7 -37z"/>
<path d="M3050 3538 c1 -34 33 -99 66 -132 126 -126 352 -56 381 117 l6 37
-227 0 -226 0 0 -22z"/>
<path d="M2560 3090 l0 -365 114 245 c76 164 111 250 105 260 -4 8 -55 62
-113 120 l-106 105 0 -365z"/>
</g>
</svg>
