<?xml version="1.0" standalone="no"?>
<!DOCTYPE svg PUBLIC "-//W3C//DTD SVG 20010904//EN"
 "http://www.w3.org/TR/2001/REC-SVG-20010904/DTD/svg10.dtd">
<svg version="1.0" xmlns="http://www.w3.org/2000/svg"
 width="512.000000pt" height="512.000000pt" viewBox="0 0 512.000000 512.000000"
 preserveAspectRatio="xMidYMid meet">

<g transform="translate(0.000000,512.000000) scale(0.100000,-0.100000)"
fill="#5c940d" stroke="none">
<path d="M1956 5104 c-630 -85 -1157 -522 -1356 -1123 -81 -244 -94 -375 -87
-890 5 -410 15 -524 63 -752 58 -277 164 -563 295 -801 206 -373 481 -692 815
-944 339 -256 717 -429 1139 -524 270 -61 301 -63 1020 -67 619 -4 662 -3 694
14 19 10 43 34 53 53 17 33 18 105 18 1736 0 1124 -4 1737 -11 1805 -71 702
-562 1279 -1235 1454 -188 49 -284 55 -817 54 -352 -1 -520 -5 -591 -15z
m1284 -271 c80 -20 187 -55 255 -83 26 -11 27 -14 10 -18 -135 -30 -332 -116
-460 -200 -167 -111 -364 -343 -446 -527 -19 -41 -36 -75 -39 -75 -3 0 -20 34
-39 75 -56 126 -145 251 -260 366 -115 115 -210 184 -348 253 -83 41 -262 105
-301 107 -27 1 95 54 178 78 176 49 199 50 800 47 533 -2 570 -4 650 -23z
m-1860 -323 c464 -56 795 -311 954 -734 57 -150 95 -361 96 -521 0 -95 19
-139 71 -167 41 -22 71 -23 114 -2 58 27 68 54 76 201 14 233 55 414 134 581
184 388 509 606 965 647 l76 7 94 -99 c188 -196 309 -427 365 -698 23 -108 30
-318 16 -430 -92 -704 -682 -1317 -1409 -1465 -526 -107 -1058 17 -1477 344
-44 35 -133 118 -197 184 -232 241 -396 543 -464 852 -26 118 -26 389 -1 510
59 278 178 506 366 702 103 108 92 103 221 88z m2970 -3100 l0 -1150 -53 0
c-47 0 -62 6 -127 49 -186 123 -310 261 -407 456 -114 226 -165 470 -178 850
l-6 190 87 54 c238 148 508 418 645 645 19 30 35 56 37 56 1 0 2 -517 2 -1150z
m-3375 880 c340 -407 831 -674 1365 -740 109 -13 351 -13 460 0 138 17 276 48
402 91 65 21 119 39 121 39 2 0 7 -73 10 -162 21 -504 159 -892 425 -1195 l54
-63 -263 0 c-365 0 -548 23 -824 101 -449 128 -827 351 -1160 684 -161 160
-240 256 -353 428 -135 205 -235 415 -310 649 -39 122 -92 337 -92 373 0 11
22 -14 51 -55 28 -41 79 -108 114 -150z"/>
<path d="M1470 3831 c-46 -15 -85 -39 -116 -73 -52 -55 -68 -95 -69 -173 0
-80 19 -128 72 -181 56 -56 89 -69 178 -69 70 0 86 4 128 28 55 33 102 93 118
151 14 51 6 143 -15 184 -23 44 -76 95 -122 117 -43 21 -135 29 -174 16z"/>
<path d="M3505 3827 c-158 -61 -222 -233 -140 -373 102 -173 360 -161 450 21
28 57 27 165 -2 221 -59 112 -201 172 -308 131z"/>
</g>
</svg>
